<html>
<head>
<meta charset="UTF-8">
<meta name="viewport" content="width=device-width, initial-scale=1.0"/>

<style>
.comment
{
    padding-left: 20px;
    margin-top: 4px;
    margin-right: 4px;
    margin-bottom: 4px;
    border: 2px #000 solid;
}
.submission
{
    border: 4px #00f solid;
    padding-left: 20px;
}
.hidden
{
    display: none;
}
</style>
</head>
<body><div class="submission" id="t3_66jxo5">
    <p class="userinfo">
        <a href="https://www.reddit.com/u/jodorowsthesky">jodorowsthesky</a>
        <span class="score"> | 24 points</span>
        <span class="timestamp"> | Apr 20 2017 19:14:05</span>
    </p>
    <strong>[MOVIE] The Gate (1987) [1080p][x264][8GB]</strong>
    <p><p>.nz/#!F3IC0aTQ!jQa7r5H8f-paJOUw5d_X65MpBdZ0ul1du1f4JZDhK-o  </p>
<pre><code>Format                                   : Matroska
Format version                           : Version 4 / Version 2
File size                                : 7.66 GiB
Duration                                 : 1 h 25 min
Overall bit rate                         : 12.8 Mb/s
Movie name                               : The.Gate.1987.1080p.BluRay.x264.DTS-FGT
Encoded date                             : UTC 2017-03-03 10:23:53
Writing application                      : mkvmerge v9.9.0 ('Pick Up') 64bit
Writing library                          : libebml v1.3.4 + libmatroska v1.4.5
Cover                                    : Yes
Attachments                              : cover_land.jpg / small_cover.jpg / small_cover_land.jpg / cover.jpg

Video
ID                                       : 1
Format                                   : AVC
Format/Info                              : Advanced Video Codec
Format profile                           : High@L4.1
Format settings, CABAC                   : Yes
Format settings, ReFrames                : 4 frames
Codec ID                                 : V_MPEG4/ISO/AVC
Duration                                 : 1 h 25 min
Bit rate                                 : 11.5 Mb/s
Width                                    : 1 920 pixels
Height                                   : 1 036 pixels
Display aspect ratio                     : 1.85:1
Frame rate mode                          : Constant
Frame rate                               : 23.976 (24000/1001) FPS
Color space                              : YUV
Chroma subsampling                       : 4:2:0
Bit depth                                : 8 bits
Scan type                                : Progressive
Bits/(Pixel*Frame)                       : 0.241
Stream size                              : 6.60 GiB (86%)
Title                                    : The.Gate.1987.1080p.BluRay.x264.DTS-FGT
Writing library                          : x264 core 148 r2694 3b70645
Encoding settings                        : cabac=1 / ref=4 / deblock=1:-2:-2 / analyse=0x3:0x113 / me=umh / subme=7 / psy=1 / psy_rd=1.00:0.15 / mixed_ref=1 / me_range=16 / chroma_me=1 / trellis=1 / 8x8dct=1 / cqm=0 / deadzone=21,11 / fast_pskip=1 / chroma_qp_offset=-3 / threads=40 / lookahead_threads=3 / sliced_threads=0 / nr=0 / decimate=1 / interlaced=0 / bluray_compat=0 / constrained_intra=0 / bframes=3 / b_pyramid=2 / b_adapt=2 / b_bias=0 / direct=3 / weightb=1 / open_gop=0 / weightp=2 / keyint=250 / keyint_min=25 / scenecut=40 / intra_refresh=0 / rc_lookahead=50 / rc=abr / mbtree=1 / bitrate=11500 / ratetol=1.0 / qcomp=0.60 / qpmin=0 / qpmax=69 / qpstep=4 / vbv_maxrate=31250 / vbv_bufsize=31250 / nal_hrd=none / filler=0 / ip_ratio=1.40 / aq=1:1.00
Language                                 : English
Default                                  : Yes
Forced                                   : No

Audio
ID                                       : 2
Format                                   : DTS
Format/Info                              : Digital Theater Systems
Mode                                     : 16
Format settings, Endianness              : Big
Codec ID                                 : A_DTS
Duration                                 : 1 h 25 min
Bit rate mode                            : Constant
Bit rate                                 : 1 509 kb/s
Channel(s)                               : 2 channels
Channel positions                        : Front: L R
Sampling rate                            : 48.0 kHz
Frame rate                               : 93.750 FPS (512 spf)
Bit depth                                : 24 bits
Compression mode                         : Lossy
Stream size                              : 926 MiB (12%)
Title                                    : The.Gate.1987.1080p.BluRay.x264.DTS-FGT
Language                                 : English
Default                                  : Yes
Forced                                   : No
</code></pre></p>
    <p class="toolbar">
        <a href="https://www.reddit.com/r/megalinks/comments/66jxo5">permalink</a>
    </p>
</div>
<div class="comment" id="t1_dgj162a">
    <p class="userinfo">
        <a
        class="toggle_hide_button"
        href="javascript:void(0)"
        onclick="toggle_collapse(this.parentElement.parentElement)">[-]
        </a>
        <a href="https://www.reddit.com/u/SubZorro">SubZorro</a>
        <span class="score"> | 1 points</span>
        <span class="timestamp"> | Apr 20 2017 19:17:06</span>
    </p>
    <div class="collapsible">
        <h5>Subtitles for this movie:</h5>
<hr>
<blockquote>
<ul>
<li>
<p><strong>The.Gate.1987.1080p.BluRay.x264.DTS-FGT</strong> - <code>1 CD</code> - <a href="http://dl.opensubtitles.org/en/download/vrf-21a083eb/sub/6905776">Download Subtitle</a></p>
</li>
<li>
<p><strong>The.Gate.1987.DVDRip-DeadFilmz</strong> - <code>1 CD</code> - <a href="http://dl.opensubtitles.org/en/download/vrf-bdf4cbd8/sub/6378245">Download Subtitle</a></p>
</li>
<li>
<p><strong>The Gate.1987.720p.WEB-DL.AAC2.0.H.264-alfaHD</strong> - <code>1 CD</code> - <a href="http://dl.opensubtitles.org/en/download/vrf-51aa059c/sub/6217781">Download Subtitle</a></p>
</li>
<li>
<p><strong>The.Gate.1987.DVDRip.XviD-FLAiR</strong> - <code>1 CD</code> - <a href="http://dl.opensubtitles.org/en/download/vrf-04dd15a2/sub/3759412">Download Subtitle</a></p>
</li>
</ul>
</blockquote>
<hr>
<p>^This ^list ^of ^subtitles ^are ^taken ^from <a href="http://www.opensubtitles.org">^opensubtitles.org</a> ^| ^For ^feedback ^or ^suggestions ^contact <a href="http://www.reddit.com/message/compose/?to=indigo6alpha">^/u/indigo6alpha</a></p>
        <p class="toolbar">
            <a href="https://www.reddit.com/r/megalinks/comments/66jxo5/_/dgj162a">permalink</a>
        </p>
        
    </div>
</div>

<div class="comment" id="t1_dgj164o">
    <p class="userinfo">
        <a
        class="toggle_hide_button"
        href="javascript:void(0)"
        onclick="toggle_collapse(this.parentElement.parentElement)">[-]
        </a>
        <a href="https://www.reddit.com/u/boltrop">boltrop</a>
        <span class="score"> | 1 points</span>
        <span class="timestamp"> | Apr 20 2017 19:17:09</span>
    </p>
    <div class="collapsible">
        <h3><a href="https://images-na.ssl-images-amazon.com/images/M/MV5BOTU2M2U4YTgtMDU0MS00MzFkLTg0OGMtODFlZDk3NjY2MmMxXkEyXkFqcGdeQXVyMTQxNzMzNDI@._V1_.jpg">The Gate</a> (1987)</h3>
<p><strong>Genre</strong>: Fantasy, Horror</p>
<p><strong>Rating</strong>:  6 (10974 votes)</p>
<p><strong>Certification</strong>: PG-13</p>
<p><strong>Runtime</strong>: 85 min</p>
<hr>
<blockquote>
<p><strong>Director(s)</strong>: <a href="https://www.imdb.com/name/nm0847749/">Tibor Takács</a></p>
<p><strong>Writer(s)</strong>: <a href="https://www.imdb.com/name/nm0002749/">Michael Nankin</a></p>
<p><strong>Cast</strong>: <a href="https://www.imdb.com/name/nm0001151/">Stephen Dorff</a>, <a href="https://www.imdb.com/name/nm0219821/">Christa Denton</a>, <a href="https://www.imdb.com/name/nm0873097/">Louis Tripp</a>, <a href="https://www.imdb.com/name/nm0746414/">Kelly Rowan</a></p>
<p><strong>Plot</strong>: Two young boys accidentally release a horde of nasty, pint-sized demons from a hole in a suburban backyard...</p>
</blockquote>
<hr>
<p>^This ^summary ^is ^taken ^from <a href="https://www.imdb.com/title/tt0093075/">^imdb.com</a> ^| ^For ^feedback ^or ^suggestions ^contact <a href="http://www.reddit.com/message/compose/?to=indigo6alpha">^/u/indigo6alpha</a></p>
        <p class="toolbar">
            <a href="https://www.reddit.com/r/megalinks/comments/66jxo5/_/dgj164o">permalink</a>
        </p>
        
    </div>
</div>

<div class="comment" id="t1_dgjfmdl">
    <p class="userinfo">
        <a
        class="toggle_hide_button"
        href="javascript:void(0)"
        onclick="toggle_collapse(this.parentElement.parentElement)">[-]
        </a>
        <a href="https://www.reddit.com/u/Shanks01">Shanks01</a>
        <span class="score"> | 1 points</span>
        <span class="timestamp"> | Apr 20 2017 23:58:33</span>
    </p>
    <div class="collapsible">
        <p>Muchas gracias por la película .</p>
        <p class="toolbar">
            <a href="https://www.reddit.com/r/megalinks/comments/66jxo5/_/dgjfmdl">permalink</a>
        </p>
        
    </div>
</div>
</body>

<script>
function toggle_collapse(comment_div)
{
    var button = comment_div.getElementsByClassName("toggle_hide_button")[0];
    var collapsible = comment_div.getElementsByClassName("collapsible")[0];
    if (collapsible.classList.contains("hidden"))
    {
        collapsible.classList.remove("hidden");
        button.innerText = "[-]";
    }
    else
    {
        collapsible.classList.add("hidden");
        button.innerText = "[+]";
    }
}
</script>
</html>
